<svg xmlns="http://www.w3.org/2000/svg" version="1.1" xmlns:xlink="http://www.w3.org/1999/xlink" xmlns:svgjs="http://svgjs.dev/svgjs" viewBox="0 0 800 800" opacity="0.51"><defs><linearGradient x1="50%" y1="0%" x2="50%" y2="100%" id="uundulate-grad"><stop stop-color="#9a8fec" stop-opacity="1" offset="45%"></stop><stop stop-color="#a4e9eb" stop-opacity="1" offset="100%"></stop></linearGradient></defs><g stroke-width="3" stroke="url(#uundulate-grad)" fill="none"><path d="M741.7255602388329 228.59505474193134C766.2468782867525 326.88892521892467 740.413305766717 477.93320039336584 684.6184105112711 562.4903389186793C628.823515255825 647.0474774439926 604.1690790826776 606.3693658259141 473.91006301269283 634.4693196634349C343.65104694270804 662.5692735009558 111.34468144910727 764.5603671833815 59.3751333753454 697.3701173387794C7.405585301583471 630.1798674941775 164.5158436836379 430.96943265074947 224.4562322586346 311.9561204093468C284.39662083363123 192.94280816794395 275.743196113949 172.20546020092746 347.08899853532864 126.10621858004475C418.4348009567084 80.00697695916205 484.7001335263608 69.32791976205056 566.9160838812577 90.67976062911038C649.1320342361547 112.03160149617014 717.2042421909135 130.3011842649379 741.7255602388329 228.59505474193134C766.2468782867525 326.88892521892467 740.413305766717 477.93320039336584 684.6184105112711 562.4903389186793 "></path><path d="M728.5822659391572 235.1875761115325C752.160456369849 329.70091310864154 727.3204827928921 474.9357930840656 673.6715450472708 556.2407339737902C620.0226073016496 637.5456748635146 596.3164186736233 598.4321059999775 471.06736476017636 625.451292382209C345.81831084672956 652.4704787644405 122.44680556442108 750.5388380744653 72.47608626272694 685.9328286085018C22.50536696103279 621.3268191425385 173.57292309762357 429.77832410078076 231.20791211204346 315.34244694558583C288.8429011264634 200.9065697903908 280.52230043446116 180.96681212979803 349.1240335319417 136.64061826356465C417.7257666294221 92.31442439733127 481.44243256178015 82.04610016933947 560.4962309799503 102.57671638766618C639.5500293981204 123.1073326059929 705.0040755084655 140.67423911442347 728.5822659391572 235.1875761115325C752.160456369849 329.70091310864154 727.3204827928921 474.9357930840656 673.6715450472708 556.2407339737902 "></path><path d="M715.4389716394816 241.78006696355556C738.0740344529457 332.5128704807802 714.227659819067 471.93835525718737 662.7246795832707 549.9910985113229C611.2216993474742 628.0438417654583 588.463758264569 590.4948156564627 468.22466650766 616.433234583405C347.98557475075097 642.3716535103473 133.54892967973484 736.5172784479709 85.57703915010848 674.4955093606461C37.60514862048211 612.4737402733213 182.6300025116093 428.58718503323394 237.95959196545232 318.72874296424675C293.28918141929546 208.87030089525956 285.3014047549733 189.72813354109047 351.1590685285546 147.17498742950647C417.0167323021358 104.62184131792242 478.18473159719963 94.76425005905031 554.076378078643 114.47364162864392C629.9680245600863 134.18303319823758 692.8039088260175 151.04726344633087 715.4389716394816 241.78006696355556C738.0740344529457 332.5128704807802 714.227659819067 471.93835525718737 662.7246795832707 549.9910985113229 "></path><path d="M702.2956773398059 248.3725578155786C723.9876125360424 335.32482785291893 701.1348368452419 468.9409174303091 651.7778141192704 543.7414630488556C602.4207913932988 618.5420086674021 580.6110978555146 582.557525312948 465.38196825514353 607.415176784601C350.1528386547725 632.2728282562541 144.65105379504865 722.4957188214768 98.67799203749001 663.0581901127904C52.70493027993143 603.6206614041041 191.68708192559495 427.3960459656871 244.7112718188613 322.11503898290766C297.7354617121275 216.83403200012827 290.08050907548545 198.48945495238297 353.1941035251675 157.70935659544824C416.3076979748496 116.92925823851351 474.9270306326191 107.4823999487611 547.6565251773355 126.37056686962165C620.386019722052 145.2587337904822 680.6037421435694 161.42028777823833 702.2956773398059 248.3725578155786C723.9876125360424 335.32482785291893 701.1348368452419 468.9409174303091 651.7778141192704 543.7414630488556 "></path><path d="M689.1524135577084 254.96504866760165C709.9012211367171 338.13678522505757 688.042044388995 465.9434796034309 640.8309791728483 537.4918275863884C593.6199139567017 609.0401755693459 572.7584679640385 574.6202349694332 462.5393005202052 598.3971189857971C352.32013307637203 622.1740030021608 155.75320842794054 708.4741591949825 111.77897544244973 651.6208708649347C67.80474245695888 594.767582534887 200.74419185715874 426.20490689814017 251.46298218984828 325.5013350015686C302.1817725225378 224.79776310499705 294.85964391357584 207.2507763636754 355.2291690393587 168.24372576139C415.5986941651414 129.23667515910466 471.6693601856166 120.20054983847189 541.2367027936064 138.2674921105994C610.804045401596 156.3344343827269 668.4036059786996 171.79331211014573 689.1524135577084 254.96504866760165C709.9012211367171 338.13678522505757 688.042044388995 465.9434796034309 640.8309791728483 537.4918275863884 "></path><path d="M676.0091192580327 261.5575700372029C695.8147992198138 340.94877311477444 674.9492214151699 462.9460722941308 629.8841137088482 531.2422226414993C584.8190060025263 599.5383729888679 564.9058075549842 566.6829751434967 459.69660226768883 589.3790917045712C354.48739698039344 612.0752082656456 166.85533254325435 694.4526300860664 124.87992832983127 640.1835821346572C82.9045241164082 585.914534183248 209.80127127114446 425.01379834817146 258.21466204325714 328.88766153780773C306.62805281536987 232.76152472744388 299.638748234088 216.01212829254598 357.2642040359716 178.77812544490996C414.8896598378551 141.54412259727388 468.41165922103596 132.9187302457608 534.8168498922989 150.16444786915525C601.2220405635619 167.41016549254965 656.2034392962516 182.16636695963132 676.0091192580327 261.5575700372029C695.8147992198138 340.94877311477444 674.9492214151699 462.9460722941308 629.8841137088482 531.2422226414993 "></path><path d="M662.8657944407789 268.150060889226C681.7283467853324 343.7607304869132 661.8563679237668 459.94863446725253 618.9372177272697 524.9925871790322C576.0180675307729 590.0365398908117 557.0531166283517 558.745684799982 456.85387349759424 580.3610339057673C356.6546303668367 601.9763830115525 177.95742614098998 680.4310704595722 137.9808506996347 628.7462628868014C98.00427525827934 577.0614553140308 218.858320167552 423.82265928062463 264.9663113790879 332.27395755646864C311.0743025906238 240.72525583231266 304.417822037022 224.77344970383842 359.2992085150065 189.31249461085173C414.1805949929908 153.85153951786504 465.1539277388773 145.63688013547159 528.3969664734134 162.061373110133C591.6400052079495 178.48586608479434 644.0032420962256 192.53939129153878 662.8657944407789 268.150060889226C681.7283467853324 343.7607304869132 661.8563679237668 459.94863446725253 618.9372177272697 524.9925871790322 "></path><path d="M649.7225001411032 274.74255174124903C667.641924868429 346.57268785905194 648.7635449499417 456.9511966403743 607.9903522632696 518.7429517165649C567.2171595765974 580.5347067927555 549.2004562192974 550.8083944564673 454.01117524507777 571.3429761069633C358.82189427085814 591.8775577574593 189.0595502563038 666.409510833078 151.08180358701622 617.3089436389457C113.10405691772866 568.2083764448137 227.9153995815377 422.6315202130777 271.71799123249684 335.66025357512956C315.520582883456 248.68898693718143 309.19692635753427 233.53477111513087 361.33424351161943 199.8468637767935C413.4715606657046 166.15895643845613 461.8962267742967 158.35503002518237 521.977113572106 173.95829835111067C582.0580003699154 189.56156667703897 631.8030754137775 202.91241562344618 649.7225001411032 274.74255174124903C667.641924868429 346.57268785905194 648.7635449499417 456.9511966403743 607.9903522632696 518.7429517165649 "></path><path d="M636.5792363590058 281.33504259327214C653.5555334691039 349.3846452311907 635.6707524936949 453.95375881349605 597.0435173168476 512.4933162540976C558.4162821400002 571.0328736946992 541.3478263278212 542.8711041129525 451.16850751013953 562.3249183081593C360.9891886924578 581.778732503366 200.16170488919568 652.3879512065837 164.1827869919759 605.8716243910901C128.2038690947561 559.3552975755965 236.9725095131015 421.440381145531 278.4697016034838 339.0465495937906C319.96689369386615 256.65271804205014 313.97606119562454 242.29609252642337 363.3693090258105 210.38123294273532C412.7625568559964 178.46637335904728 458.6385563272943 171.07317991489316 515.5572911883767 185.8552235920884C572.4760260494593 200.63726726928365 619.6029392489077 213.28543995535364 636.5792363590058 281.33504259327214C653.5555334691039 349.3846452311907 635.6707524936949 453.95375881349605 597.0435173168476 512.4933162540976 "></path><path d="M623.43594205933 287.92756396287336C639.4691115522005 352.19663312090745 622.5779295198697 450.95635150419594 586.0966518528473 506.2437113092085C549.6153741858249 561.5310711142212 533.4951659187669 534.933844287016 448.32580925762306 553.3068910269334C363.1564525964792 571.6799377668508 211.2638290045095 638.3664220976675 177.28373987935743 594.4343356608125C143.30365075420542 550.5022492239575 246.02958892708716 420.24927259556216 285.2213814568927 342.4328761300296C324.4131739866982 264.616479664497 318.7551655161367 251.05744445529393 365.4043440224234 220.91563262625522C412.0535225287101 190.7738207972165 455.38085536271365 183.79136032218213 509.13743828706936 197.75217935064427C562.8940212114251 211.7129983791064 607.4027725664597 223.65849480483922 623.43594205933 287.92756396287336C639.4691115522005 352.19663312090745 622.5779295198697 450.95635150419594 586.0966518528473 506.2437113092085 "></path><path d="M610.2926477596544 294.5200548148964C625.3826896352971 355.0085904930462 609.4851065460447 447.9589136773177 575.1497863888471 499.99407584674134C540.8144662316495 552.029238016165 525.6425055097127 526.9965539435012 445.4831110051066 544.2888332281294C365.3237165005007 561.5811125127576 222.36595311982325 624.3448624711734 190.38469276673897 582.9970164129568C158.40343241365474 541.6491703547402 255.08666834107282 419.05813352801533 291.97306131030155 345.81917214869054C328.85945427953027 272.58021076936575 323.5342698366489 259.8187658665864 367.4393790190363 231.45000179219699C411.3444882014239 203.08123771780765 452.123154398133 196.50951021189292 502.71758538576205 209.649104591622C553.3120163733909 222.7886989713511 595.2026058840116 234.03151913674662 610.2926477596544 294.5200548148964C625.3826896352971 355.0085904930462 609.4851065460447 447.9589136773177 575.1497863888471 499.99407584674134 "></path><path d="M597.1493534599788 301.11254566691946C611.2962677183939 357.82054786518495 596.3922835722196 444.96147585043946 564.2029209248469 493.7444403842742C532.0135582774742 542.5274049181087 517.7898451006583 519.0592635999865 442.64041275259024 535.2707754293253C367.49098040452213 551.4822872586644 233.468077235137 610.3233028446791 203.48564565412056 571.5596971651012C173.50321407310406 532.796091485523 264.14374775505854 417.8669944604685 298.72474116371046 349.20546816735146C333.30573457236244 280.5439418742345 328.3133741571611 268.5800872778788 369.47441401564936 241.9843709581388C410.6354538741376 215.38865463839875 448.8654534335525 209.2276601016037 496.2977324844546 221.54602983259974C543.7300115353567 233.86439956359573 583.0024392015637 244.40454346865408 597.1493534599788 301.11254566691946C611.2962677183939 357.82054786518495 596.3922835722196 444.96147585043946 564.2029209248469 493.7444403842742 "></path><path d="M584.006059160303 307.70503651894256C597.2098458014905 360.63250523732364 583.2994605983945 441.9640380235612 553.2560554608467 487.4948049218069C523.2126503232987 533.0255718200526 509.937184691604 511.12197325647185 439.79771450007377 526.2527176305214C369.65824430854354 541.3834620045711 244.57020135045082 596.3017432181849 216.5865985415021 560.1223779172454C188.60299573255338 523.943012616306 273.2008271690442 416.6758553929217 305.4764210171194 352.5917641860124C337.7520148651945 288.50767297910323 333.09247847767324 277.34140868917126 371.5094490122623 252.51874012408058C409.9264195468513 227.6960715589899 445.60775246897197 221.9458099913145 489.8778795831472 233.44295507357742C534.1480066973224 244.9401001558404 570.8022725191156 254.77756780056149 584.006059160303 307.70503651894256C597.2098458014905 360.63250523732364 583.2994605983945 441.9640380235612 553.2560554608467 487.4948049218069 "></path><path d="M570.8627648606274 314.29752737096567C583.1234238845872 363.44446260946233 570.2066376245695 438.966600196683 542.3091899968465 481.24516945933965C514.4117423691234 523.5237387219963 502.08452428254975 503.184682912957 436.9550162475573 517.2346598317174C371.82550821256496 531.2846367504778 255.67232546576457 582.2801835916907 229.68755142888364 548.6850586693897C203.7027773920027 515.0899337470887 282.2579065830299 415.48471632537473 312.22810087052824 355.9780602046734C342.19829515802655 296.47140408397195 337.87158279818544 286.10273010046376 373.54448400887526 263.0531092900224C409.21738521956513 240.003488479581 442.35005150439133 234.66395988102528 483.4580266818398 245.33988031455516C524.5660018592882 256.01580074808504 558.6021058366678 265.15059213246894 570.8627648606274 314.29752737096567C583.1234238845872 363.44446260946233 570.2066376245695 438.966600196683 542.3091899968465 481.24516945933965 "></path><path d="M557.7194858197408 320.8900182229887C569.0370172264729 366.256419981601 557.1138299095335 435.9691623698046 531.3623397916353 474.9955339968724C505.6108496737371 514.02190562394 494.2318791322846 495.24739256944235 434.11233325383 508.21660203291344C373.9927873753755 521.1858114963845 266.77446483986745 568.2586239651964 242.78851957505424 537.247739421534C218.80257431024108 506.23685487787156 291.31500125580465 414.2935772578279 318.97979598272616 359.3643562233343C346.64459070964773 304.4351351888407 342.65070237748665 294.8640515117562 375.5795342642773 273.5874784559642C408.5083661510679 252.31090540017215 439.09236579859976 247.38210977073607 477.0381890393214 257.2368055555329C514.9840122800431 267.0915013403297 546.4019544130088 275.5236164643764 557.7194858197408 320.8900182229887C569.0370172264729 366.256419981601 557.1138299095335 435.9691623698046 531.3623397916353 474.9955339968724 "></path><path d="M544.576176261276 327.4825243338008C554.9505800507804 369.0683926125288 544.0209916769194 432.97173980171544 520.4154590688461 468.7459137931942C496.80992646077266 504.520087784673 486.37920346444116 487.31011748471656 431.26961974252447 499.19855949289854C376.1600360206079 511.0870015010804 277.87657369639214 554.2370795974912 255.8894572036467 525.8104354324673C233.90234071090129 497.3837912674435 300.37206541100124 413.10245344907 325.731460577346 362.7506675007843C351.0908557436908 312.3988815524985 347.4297914392098 303.6253881818377 377.6145540021012 284.121862880695C407.7993165649926 264.6183375795523 435.8346495752302 260.1002749192359 470.61832087922505 269.1337460552997C505.4019921832198 278.1672171913634 534.2017724717716 285.89665605507287 544.576176261276 327.4825243338008C554.9505800507804 369.0683926125288 544.0209916769194 432.97173980171544 520.4154590688461 468.7459137931942 "></path><path d="M531.4329277379676 334.07499992703487C540.8642039102443 371.88033472587847 530.9282144794615 429.97428671604814 509.46863938121305 462.49626307193796C488.0090642829646 495.01823942782767 478.526588831754 479.37281188241286 428.4269672663752 490.1804864353055C378.3273457009965 500.98816098819816 288.97874358807314 540.215504712208 268.99045586739544 514.3731009258227C249.0021681467178 488.5306971394373 309.42919060135415 411.9112991227342 332.4831862071221 366.1369482606562C355.53718181289 320.3625973985782 352.2089415360891 312.3866943343411 379.6496347750814 294.65621678784777C407.0903280140735 276.9257392413544 432.57699438701684 272.8184095501577 464.1985137542848 281.03065603748837C495.8200331215528 289.24290252481904 522.001651565691 296.26966512819126 531.4329277379676 334.07499992703487C540.8642039102443 371.88033472587847 530.9282144794615 429.97428671604814 509.46863938121305 462.49626307193796 "></path><path d="M518.289633438292 340.66753655542516C526.777781993341 374.6923378743844 517.8353915056365 426.9768946655371 498.52177391721284 456.2466733858379C479.2081563287892 485.5164521061387 470.67392842269965 471.4355673152653 425.58426901385883 481.16247441286873C380.49460960501796 490.88938151047205 300.0808677033869 526.1939908620809 282.09140875477704 502.9358274543341C264.1019498061671 479.6776640465873 318.4862700153398 410.72020583155455 339.234866060531 369.52329005568436C359.98346210572214 328.3263742798141 356.98804585660133 321.1480615220007 381.6846697716943 305.1906317301567C406.3812936867873 289.2332019383127 429.3192934224362 285.53660521623567 457.7786608529774 292.9276270548333C486.2380282835187 300.31864889343086 509.8014848832429 306.6427352364659 518.289633438292 340.66753655542516C526.777781993341 374.6923378743844 517.8353915056365 426.9768946655371 498.52177391721284 456.2466733858379 "></path><path d="M505.1463391386162 347.2600274074482C512.6913600764376 377.5042952465231 504.74256853181146 423.97945683865885 487.57490845321263 449.9970379233707C470.4072483746138 476.0146190080825 462.8212680136454 463.49827697175056 422.74157076134236 472.14441661406477C382.6618735090394 480.79055625637875 311.18299181870066 512.1724312355867 295.1923616421586 491.4985082064784C279.20173146561643 470.8245851773702 327.5433494293255 409.52906676400767 345.98654591393984 372.90958607434527C364.4297423985542 336.2901053846829 361.76715017711354 329.90938293329316 383.7197047683072 315.7250008960985C405.672259359501 301.5406188589038 426.06159245785557 298.25475510594646 451.3588079516701 304.824552295811C476.6560234454845 311.39434948567555 497.6013182007948 317.0157595683733 505.1463391386162 347.2600274074482C512.6913600764376 377.5042952465231 504.74256853181146 423.97945683865885 487.57490845321263 449.9970379233707 "></path><path d="M492.00301432136246 353.8525030006822C498.6049076419562 380.31623735987273 491.6497150404082 420.98200375299155 476.6280124716343 443.7473872021144C461.6063099028603 466.51277065123725 454.96857708701293 455.56097136944686 419.8988419912478 463.1263435564716C384.8291068954827 470.6917157434965 322.28508541643635 498.15085635030346 308.293284011962 480.0611736998337C294.3014826074876 461.971491049364 336.60039832573307 408.3379124376718 352.7381952497706 376.2958668342171C368.8759921738082 344.2538212307626 366.54622398004756 338.6706890857966 385.7547092473421 326.25935480325126C404.9631945146366 313.84802052070586 422.8038609756969 310.9728897368682 444.93892453278454 316.72146227799965C467.07398808987216 322.4700348191311 485.40112100076874 327.3887686414917 492.00301432136246 353.8525030006822C498.6049076419562 380.31623735987273 491.6497150404082 420.98200375299155 476.6280124716343 443.7473872021144 "></path><path d="M478.8597200216868 360.44500911149436C484.51848572505287 383.12820999080054 478.55689206658315 417.9845811849023 465.6811470076341 437.4977669984362C452.80540194868496 457.01095281197 447.1159166779587 447.6236962847212 417.0561437387314 454.1083010164567C386.9963707995041 460.59290574819227 333.3872095317501 484.1293119825982 321.3942368993435 468.62386971076694C309.40126426693695 453.1184274389358 345.65747773971873 407.14678862891395 359.4898751031795 379.68217811166716C373.3222724666403 352.21756759442036 371.32532830055976 347.4320257558781 387.78974424395506 336.7937392279821C404.25416018735035 326.1554527000861 419.5461600111163 323.69105488536803 438.5190716314771 328.61840277776645C457.49198325183795 333.54575067016486 473.2009543183208 337.7618082321882 478.8597200216868 360.44500911149436C484.51848572505287 383.12820999080054 478.55689206658315 417.9845811849023 465.6811470076341 437.4977669984362 "></path><path d="M465.71645623958926 367.0375152223065C470.43209432572763 385.9401826217283 465.46409961033623 414.98715861681313 454.734312061212 431.24814679475804C444.00452451208776 447.5091349727029 439.26328678648247 439.6864211999955 414.21347600379306 445.0902584764418C389.1636652211037 450.49409575288814 344.48936416464204 470.1077676148931 334.4952203043032 457.1865657217004C324.5010764439644 444.2653638285077 354.7145876712825 405.95566482015613 366.2415854741665 383.0684893891172C377.7685832770505 360.18131395807814 376.10446313865003 356.1933624259596 389.82480975814616 347.3281236527129C403.54515637764223 338.46288487946623 416.2884895641139 336.4092200338679 432.0992492477479 340.51534327753325C447.91000893138187 344.62146652119856 461.00081815345095 348.1348478228847 465.71645623958926 367.0375152223065C470.43209432572763 385.9401826217283 465.46409961033623 414.98715861681313 454.734312061212 431.24814679475804 "></path><path d="M452.57317719870264 373.63002133311863C456.34568766761333 388.75215525265605 452.37129189530026 411.98973604872396 443.78746185600085 424.9985265910799C435.20363181670143 438.0073171334358 431.41064163621724 431.7491461152698 411.3707930100657 436.0722159364269C391.33094438391424 440.3952857575839 355.59150353874486 456.0862232471879 347.5961884504738 445.7492617326337C339.6008733622027 435.4123002180796 363.7716823440573 404.76454101139836 372.99328058636445 386.45480066656717C382.21487882867166 368.14506032173597 380.8835827179513 364.9546990960411 391.85986001354814 357.8625080774438C402.83613730914504 350.77031705884644 413.0308038583223 349.12738518236773 425.6794116052296 352.41228377730005C438.3280193521368 355.6971823722323 448.80066672979194 358.5078874135812 452.57317719870264 373.63002133311863C456.34568766761333 388.75215525265605 452.37129189530026 411.98973604872396 443.78746185600085 424.9985265910799 "></path><path d="M439.429882899027 380.2225121851417C442.25926575071003 391.5641126247948 439.27846892147517 408.9922982218457 432.84059639200063 418.7488911286126C426.40272386252605 428.50548403537954 423.55798122716294 423.8118557717551 408.5280947575493 427.0541581376229C393.49820828793565 430.29646050349066 366.6936276540587 442.06466362069364 360.6971413378554 434.311942484778C354.70065502165204 426.5592213488624 372.82876175804296 403.57340194385154 379.74496043977337 389.8410966852281C386.6611591215037 376.1087914266047 385.66268703846345 373.71602050733355 393.8948950101611 368.3968772433856C402.1271029818588 363.07773397943754 409.77310289374174 361.8455350720786 419.25955870392215 364.3092090182778C428.74601451410257 366.77288296447693 436.600500047344 368.8809117454886 439.429882899027 380.2225121851417C442.25926575071003 391.5641126247948 439.27846892147517 408.9922982218457 432.84059639200063 418.7488911286126 "></path><path d="M426.2865885993513 386.8150030371648C428.17284383380667 394.3760699969335 426.18564594765013 405.9948603949674 421.8937309280004 412.4992556661454C417.6018159083507 419.00365093732336 415.7053208181086 415.8745654282404 405.6853965050329 418.0361003388189C395.6654721919571 420.1976352493974 377.79575176937243 428.0431039941994 373.7980942252369 422.87462323692233C369.80043668110136 417.7061424796453 381.8858411720286 402.38226287630465 386.4966402931822 393.22739270388905C391.10743941433583 384.07252253147345 390.44179135897565 382.47734191862605 395.9299300067741 378.93124640932734C401.4180686545725 375.3851509000287 406.51540192916116 374.56368496178936 412.8397058026148 376.20613425925546C419.16400967606836 377.8485835567216 424.40033336489597 379.2539360773961 426.2865885993513 386.8150030371648C428.17284383380667 394.3760699969335 426.18564594765013 405.9948603949674 421.8937309280004 412.4992556661454 "></path><path d="M413.1432942996757 393.40750914797695C414.08642191690336 397.1880426278613 413.09282297382504 402.99743782687824 410.9468654640002 406.2496354624672C408.8009079541754 409.5018330980562 407.8526604090543 407.93729034351475 402.8426982525164 409.01805779880397C397.83273609597853 410.09882525409324 388.89787588468624 414.02155962649425 386.89904711261846 411.4373192478557C384.9002183405507 408.85307886921714 390.94292058601434 401.1911390675468 393.24832014659114 396.6137039813391C395.5537197071679 392.03626889513123 395.2208956794878 391.23867858870756 397.964965003387 389.46563083405823C400.70903432728625 387.69258307940885 403.2577009645806 387.2818501102892 406.41985290130737 388.10307475902226C409.5820048380342 388.9242994077553 412.200166682448 389.62697566809254 413.1432942996757 393.40750914797695C414.08642191690336 397.1880426278613 413.09282297382504 402.99743782687824 410.9468654640002 406.2496354624672 "></path></g></svg>